Genre: Thriller
Language:English
IMDb:http://www.imdb.com/title/tt1046171/
Source:DVD Thanks!
Encoder:Tony


Format : AVI
Format/Info : Audio Video Interleave
File size : 1.33 GiB
Duration : 1h 40mn
Overall bit rate : 1 887 Kbps


Video
ID : 0
Format : MPEG-4 Visual
Format profile : Advanced Simple@L5
Format settings, BVOP : 1
Format settings, QPel : No
Format settings, GMC : No warppoints
Format settings, Matrix : Default (H.263)
Codec ID : XVID
Codec ID/Hint : XviD
Duration : 1h 40mn
Bit rate : 1 430 Kbps
Width : 640 pixels
Height : 264 pixels
Display aspect ratio : 2.40:1
Frame rate : 23.976 fps
Color space : YUV
Chroma subsampling : 4:2:0
Bit depth : 8 bits
Scan type : Progressive
Compression mode : Lossy
Bits/(Pixel*Frame) : 0.353
Stream size : 1.01 GiB (76%)
Writing library : XviD 1.2.1 (UTC 2008-12-04)

Audio
ID : 1
Format : AC-3
Format/Info : Audio Coding 3
Mode extension : CM (complete main)
Codec ID : 2000
Duration : 1h 40mn
Bit rate mode : Constant
Bit rate : 448 Kbps
Channel(s) : 6 channels
Channel positions : Front: L C R, Side: L R, LFE
Sampling rate : 48.0 KHz
Bit depth : 16 bits
Compression mode : Lossy
Stream size : 323 MiB (24%)
Alignment : Aligned on interleaves
Interleave, duration : 42 ms (1.00 video frame)
Interleave, preload duration : 512 ms


Plot:
Two teenage girls, Janie who is American and Lana who is Russian, fall in love after meeting at a t.A.T.u concert and are swept into a dangerous world of obsession, drug abuse and murder.
 
http://img13.imageshack.us/img13/5236/vlcsnap2012020907h22m44.png 
http://img600.imageshack.us/img600/4683/vlcsnap2012020907h21m36.png 
http://img210.imageshack.us/img210/5582/vlcsnap2012020907h20m59.png 
http://img33.imageshack.us/img33/5736/vlcsnap2012020907h20m19.png